# xmcd
#
# Track frame offsets: 
#        150
#        13943
#        29652
#        48488
#        68164
#        97199
#        105658
#        131853
#        144935
#        160828
#        190865
#        207336
#
# Disc length: 2925 seconds
#
# Revision: 0
# Processed by: cddbd v1.5.2PL0 Copyright (c) Steve Scherf et al.
# Submitted via: ExactAudioCopy v0.99pb4
#
DISCID=b10b6b0c
DTITLE=Tom Waits - 1986-11-22
DYEAR=1986
DGENRE=blues
TTITLE0=Tango 'til they're sore
TTITLE1=I wish I was in New Orleans
TTITLE2=Downtown train
TTITLE3=Jersey girl
TTITLE4=Innocent when you dream
TTITLE5=Walking spanish
TTITLE6=Tom Traubert's Blues
TTITLE7=On the nickle
TTITLE8=The heart of saturday night
TTITLE9=Burma shave
TTITLE10=$29.00
TTITLE11=Broken bicycles
EXTD=
EXTT0=
EXTT1=
EXTT2=
EXTT3=
EXTT4=
EXTT5=
EXTT6=
EXTT7=
EXTT8=
EXTT9=
EXTT10=
EXTT11=
PLAYORDER=
